<?xml version="1.0" standalone="no"?>
<!DOCTYPE svg PUBLIC "-//W3C//DTD SVG 20010904//EN"
 "http://www.w3.org/TR/2001/REC-SVG-20010904/DTD/svg10.dtd">
<svg version="1.0" xmlns="http://www.w3.org/2000/svg"
 width="380.000000pt" height="126.000000pt" viewBox="0 0 380.000000 126.000000"
 preserveAspectRatio="xMidYMid meet">

<g transform="translate(0.000000,126.000000) scale(0.100000,-0.100000)"
fill="#000000" stroke="none">
<path d="M214 1133 c-3 -16 -10 -45 -16 -67 -15 -62 -4 -50 24 24 20 53 23 70
12 70 -7 0 -16 -12 -20 -27z"/>
<path d="M58 933 l22 -4 0 -419 0 -419 -22 -4 c-13 -2 25 -5 85 -6 l107 -1 -1
118 -2 117 -8 -88 c-10 -112 -24 -137 -81 -137 l-41 0 6 226 c3 124 8 228 11
232 12 12 37 -25 45 -69 7 -35 9 -20 9 76 0 94 -2 111 -9 76 -9 -48 -24 -71
-45 -71 -11 0 -14 35 -14 185 l0 185 35 0 c63 0 75 -25 88 -185 2 -22 4 13 5
78 l2 117 -107 -1 c-60 -1 -98 -4 -85 -6z"/>
<path d="M898 933 l22 -4 0 -419 0 -419 -22 -4 c-13 -2 25 -5 85 -6 l107 -1
-1 113 c-1 125 -4 129 -14 14 -8 -92 -25 -117 -80 -117 l-35 0 0 419 0 420 23
4 c12 2 -7 4 -43 4 -36 0 -55 -2 -42 -4z"/>
<path d="M1728 933 l22 -4 0 -419 c0 -390 -1 -419 -17 -423 -10 -3 11 -5 47
-4 36 0 55 2 43 4 l-23 4 0 419 0 419 23 4 c12 2 -9 4 -48 4 -38 0 -60 -2 -47
-4z"/>
<path d="M2472 823 c1 -65 3 -95 5 -68 8 135 26 175 78 175 l25 0 0 -419 0
-420 -22 -4 c-13 -2 6 -4 42 -4 36 0 55 2 43 4 l-23 4 0 420 0 419 25 0 c52 0
66 -32 78 -185 2 -22 4 13 5 78 l2 117 -130 0 -130 0 2 -117z"/>
<path d="M3378 933 l22 -4 0 -419 0 -419 -22 -4 c-13 -2 25 -5 85 -6 l107 -1
-1 118 -2 117 -8 -88 c-10 -112 -24 -137 -81 -137 l-41 0 6 227 c4 124 9 229
12 232 12 11 36 -27 44 -70 7 -35 9 -20 9 76 0 94 -2 111 -9 76 -9 -48 -24
-71 -45 -71 -11 0 -14 35 -14 185 l0 185 35 0 c63 0 75 -25 88 -185 2 -22 4
13 5 78 l2 117 -107 -1 c-60 -1 -98 -4 -85 -6z"/>
</g>
</svg>
