<?xml version="1.0" encoding="UTF-8"?>
<svg version="1.1" xmlns="http://www.w3.org/2000/svg" width="145" height="53">
<path d="M0 0 C47.85 0 95.7 0 145 0 C145 17.49 145 34.98 145 53 C97.15 53 49.3 53 0 53 C0 35.51 0 18.02 0 0 Z " fill="#113F5F" transform="translate(0,0)"/>
<path d="M0 0 C1.65 0 3.3 0 5 0 C5 10.89 5 21.78 5 33 C3.68 33 2.36 33 1 33 C0.67 22.11 0.34 11.22 0 0 Z " fill="#7E9CB0" transform="translate(35,11)"/>
<path d="M0 0 C0.66 0 1.32 0 2 0 C2.33 3.96 2.66 7.92 3 12 C3.66 12 4.32 12 5 12 C5.33 14.31 5.66 16.62 6 19 C5.34 19 4.68 19 4 19 C4.33 20.65 4.66 22.3 5 24 C5.66 24 6.32 24 7 24 C7 26.64 7 29.28 7 32 C4.69 32 2.38 32 0 32 C0 21.44 0 10.88 0 0 Z " fill="#90AEBA" transform="translate(6,12)"/>
<path d="M0 0 C1.32 0 2.64 0 4 0 C4 10.89 4 21.78 4 33 C2.68 33 1.36 33 0 33 C0 22.11 0 11.22 0 0 Z " fill="#7896AF" transform="translate(67,11)"/>
<path d="M0 0 C0.99 0 1.98 0 3 0 C3 10.89 3 21.78 3 33 C2.01 33 1.02 33 0 33 C0 22.11 0 11.22 0 0 Z " fill="#98B1C7" transform="translate(98,11)"/>
<path d="M0 0 C0.66 0 1.32 0 2 0 C2 4.29 2 8.58 2 13 C2.66 13 3.32 13 4 13 C4 13.66 4 14.32 4 15 C3.34 15 2.68 15 2 15 C2 20.61 2 26.22 2 32 C1.34 32 0.68 32 0 32 C0 21.44 0 10.88 0 0 Z " fill="#ADCBDF" transform="translate(129,12)"/>
<path d="M0 0 C2.31 0 4.62 0 7 0 C6.67 1.98 6.34 3.96 6 6 C5.67 4.68 5.34 3.36 5 2 C4.34 2 3.68 2 3 2 C3.33 4.97 3.66 7.94 4 11 C4.33 11 4.66 11 5 11 C5 12.98 5 14.96 5 17 C4.34 17 3.68 17 3 17 C3 21.62 3 26.24 3 31 C3.66 31 4.32 31 5 31 C5 30.34 5 29.68 5 29 C5.66 29 6.32 29 7 29 C7 30.32 7 31.64 7 33 C5.35 33 3.7 33 2 33 C2 27.39 2 21.78 2 16 C2.66 16 3.32 16 4 16 C4 15.34 4 14.68 4 14 C3.34 14 2.68 14 2 14 C2 9.71 2 5.42 2 1 C1.34 0.67 0.68 0.34 0 0 Z " fill="#496A83" transform="translate(129,11)"/>
<path d="M0 0 C2.31 0 4.62 0 7 0 C7.05437607 1.58294782 7.09296271 3.16644256 7.125 4.75 C7.14820313 5.63171875 7.17140625 6.5134375 7.1953125 7.421875 C6.99139502 10.1135858 6.36551721 11.69904974 5 14 C4.01 14 3.02 14 2 14 C2 9.71 2 5.42 2 1 C1.34 0.67 0.68 0.34 0 0 Z " fill="#375D78" transform="translate(6,11)"/>
<path d="M0 0 C1.32 0 2.64 0 4 0 C4 2.64 4 5.28 4 8 C3.34 8 2.68 8 2 8 C2 8.68102783 2 9.36205566 2 10.0637207 C2 18.04248047 2 26.02124023 2 34 C1.34 33.67 0.68 33.34 0 33 C0 22.11 0 11.22 0 0 Z " fill="#355A76" transform="translate(101,12)"/>
<path d="M0 0 C0.66 0 1.32 0 2 0 C2.66 0.66 3.32 1.32 4 2 C3.98252112 4.59269983 3.86231408 7.0525154 3.625 9.625 C3.56828125 10.33140625 3.5115625 11.0378125 3.453125 11.765625 C3.31159079 13.51121361 3.15702613 15.25573673 3 17 C2.01 17 1.02 17 0 17 C0 16.34 0 15.68 0 15 C0.66 15 1.32 15 2 15 C1.67 13.35 1.34 11.7 1 10 C0.67 10 0.34 10 0 10 C0 6.7 0 3.4 0 0 Z " fill="#1E4661" transform="translate(132,13)"/>
<path d="M0 0 C0.66 0 1.32 0 2 0 C2 1.32 2 2.64 2 4 C1.34 4 0.68 4 0 4 C0 9.28 0 14.56 0 20 C-0.99 19.67 -1.98 19.34 -3 19 C-2.34 19 -1.68 19 -1 19 C-1.01160156 17.71222656 -1.02320313 16.42445312 -1.03515625 15.09765625 C-1.0445327 13.41927228 -1.05363305 11.74088674 -1.0625 10.0625 C-1.07506836 8.78729492 -1.07506836 8.78729492 -1.08789062 7.48632812 C-1.09111328 6.67744141 -1.09433594 5.86855469 -1.09765625 5.03515625 C-1.10289307 4.2862915 -1.10812988 3.53742676 -1.11352539 2.76586914 C-1 1 -1 1 0 0 Z " fill="#587C95" transform="translate(9,24)"/>
<path d="M0 0 C0 2.97 0 5.94 0 9 C-0.99 9.33 -1.98 9.66 -3 10 C-3 7.03 -3 4.06 -3 1 C-1 0 -1 0 0 0 Z " fill="#406B88" transform="translate(45,34)"/>
<path d="M0 0 C0.66 0 1.32 0 2 0 C2 2.64 2 5.28 2 8 C1.01 8 0.02 8 -1 8 C-0.67 5.36 -0.34 2.72 0 0 Z " fill="#58829E" transform="translate(11,36)"/>
<path d="M0 0 C2.31 0 4.62 0 7 0 C6.67 1.98 6.34 3.96 6 6 C5.67 4.68 5.34 3.36 5 2 C3.35 1.67 1.7 1.34 0 1 C0 0.67 0 0.34 0 0 Z " fill="#59809D" transform="translate(129,11)"/>
<path d="M0 0 C0.33 0.99 0.66 1.98 1 3 C1.66 3 2.32 3 3 3 C3 2.34 3 1.68 3 1 C3.66 1 4.32 1 5 1 C5 2.32 5 3.64 5 5 C3.35 5 1.7 5 0 5 C0 3.35 0 1.7 0 0 Z " fill="#577E99" transform="translate(131,39)"/>
</svg>
